# xmcd
# 
# Track frame offsets:
#     150
#     13688
#     23168
#     36188
#     46534
#     63167
#     70913
#     83375
#     93408
#     104060
#     112735
#     122848
#     132258
#     142044
#     155646
#     163627
#     176542
#     188777
#     197881
#     206936
#     220642
#     231899
#     242974
#     255828
#     264615
# 
# Disc length: 3687
# 
# Revision: 0
# Processed by: cddbd v1.5.2PL0 Copyright (c) Steve Scherf et al.
# Submitted via: BonkEnc v1.0.8
# 
DISCID=5b0e6519
DTITLE=MARTY ROBBINS - Island Woman
DYEAR=1991
DGENRE=Country
TTITLE0=Girl From Spanish Town (3)
TTITLE1=Kingston Girl (2)
TTITLE2=Sweet Bird Of Paradise
TTITLE3=Jamaica Farewell
TTITLE4=Calypso Girl
TTITLE5=Back To Montego Bay
TTITLE6=Girl From Spanish Town (1)
TTITLE7=Kingston Girl (1)
TTITLE8=A Woman Gets Her Way
TTITLE9=The Mango Song
TTITLE10=Calypso Vacation
TTITLE11=Blue Sea
TTITLE12=Bahama Mama
TTITLE13=Tahitian Boy
TTITLE14=Native Girl
TTITLE15=Girl From Spanish Town (2)
TTITLE16=Yours (Quiereme Me Mucho)
TTITLE17=You Belong To My Heart
TTITLE18=La Borrachita
TTITLE19=La Paloma
TTITLE20=Yours (Quiereme Me Mucho) (spanish)
TTITLE21=Adios Marquita Linda
TTITLE22=Maria Elena
TTITLE23=Amor
TTITLE24=Camelia
EXTD=YEAR: 1991
EXTT0=
EXTT1=
EXTT2=
EXTT3=
EXTT4=
EXTT5=
EXTT6=
EXTT7=
EXTT8=
EXTT9=
EXTT10=
EXTT11=
EXTT12=
EXTT13=
EXTT14=
EXTT15=
EXTT16=
EXTT17=
EXTT18=
EXTT19=
EXTT20=
EXTT21=
EXTT22=
EXTT23=
EXTT24=
PLAYORDER=
